PathFileType	4	(X/Y/Z)	/Users/niels/Desktop/University/Third Semester/Perception and Action/Exam/Gymnastics Motion Tracking/Code for Gym Tracking/Analyzed Data/Webcam_Backflip/id6_4_baseline_Sports2D/id6_4_baseline_Sports2D_px_person00.trc
DataRate	CameraRate	NumFrames	NumMarkers	Units	OrigDataRate	OrigDataStartFrame	OrigNumFrames
29.81132075471698	29.81132075471698	12	22	m	29.81132075471698	139	159
Frame#	Time	Hip			RHip			RKnee			RAnkle			RBigToe			RSmallToe			RHeel			LHip			LKnee			LAnkle			LBigToe			LSmallToe			LHeel			Neck			Head			Nose			RShoulder			RElbow			RWrist			LShoulder			LElbow			LWrist		
		X1	Y1	Z1	X2	Y2	Z2	X3	Y3	Z3	X4	Y4	Z4	X5	Y5	Z5	X6	Y6	Z6	X7	Y7	Z7	X8	Y8	Z8	X9	Y9	Z9	X10	Y10	Z10	X11	Y11	Z11	X12	Y12	Z12	X13	Y13	Z13	X14	Y14	Z14	X15	Y15	Z15	X16	Y16	Z16	X17	Y17	Z17	X18	Y18	Z18	X19	Y19	Z19	X20	Y20	Z20	X21	Y21	Z21	X22	Y22	Z22
139	4.662658227848101	0.95165407549591	-0.6283502279010339	0.0	0.9512402893947965	-0.6276020214124445	0.0	0.9821682437925854	-0.7225576776331754	0.0	0.9480620025548404	-0.8141302149170015	0.0	0.9711090865262524	-0.8291267131620101	0.0	0.9637501412258156	-0.830204355387067	0.0	0.9388636152517167	-0.8261127201577908	0.0	0.9490004067108861	-0.6273949057339541	0.0	0.9806819833770789	-0.7199816434827405	0.0	0.9493234777364126	-0.809731789648845	0.0	0.9814375948654094	-0.8244393878492056	0.0	0.9744245097457073	-0.8205177392187515	0.0	0.9376256701989585	-0.8205645068480878	0.0	0.9566281195894296	-0.49186611390116713	0.0	0.9716103674848997	-0.42842009034542233	0.0	0.9854302608737903	-0.4600370717224835	0.0	0.9533374889898042	-0.5129686071466804	0.0	0.9469827369613883	-0.5816631317258697	0.0	0.9595862619085038	-0.6415210872176594	0.0	0.9479703764978362	-0.5082169555122205	0.0	0.939264036565376	-0.5644102729223762	0.0	0.9575346194131594	-0.6144861484283939	0.0
140	4.69620253164557	0.9497619671961163	-0.6300128642010547	0.0	0.9492135841469805	-0.6288828812552247	0.0	0.9837779696082852	-0.7232089660506366	0.0	0.9480775259018425	-0.813927754866139	0.0	0.9721865819259465	-0.8286943054088094	0.0	0.9646016265287537	-0.8299703838348802	0.0	0.9387682438191819	-0.8253862784267013	0.0	0.9469173600868053	-0.6285967469941436	0.0	0.9830000560441938	-0.7204915650168257	0.0	0.9496047935080012	-0.808981401066729	0.0	0.9837295815551566	-0.8233516396081167	0.0	0.9764974035118059	-0.8195033211039355	0.0	0.9371845378786916	-0.8192595033043816	0.0	0.958447771101085	-0.49470560530904456	0.0	0.9740017481212995	-0.43156770508789527	0.0	0.9880077819406299	-0.46236543193617147	0.0	0.9559894339723042	-0.5151392113646461	0.0	0.9516666716903317	-0.5843828442982248	0.0	0.9648983826490704	-0.6437409178776179	0.0	0.9498937488337085	-0.5115299324838881	0.0	0.9401994044318298	-0.5726053720236624	0.0	0.9585569978191973	-0.6255371912753741	0.0
141	4.729746835443038	0.948130157377516	-0.6270805778489763	0.0	0.9474615919956341	-0.6255171225488406	0.0	0.9853406917022166	-0.7193316217622447	0.0	0.9484021484736707	-0.8097994188432132	0.0	0.9744497336217568	-0.8248533230247169	0.0	0.9662594792348835	-0.8263698221301259	0.0	0.9388449732550757	-0.82099529345989	0.0	0.945332541148375	-0.625136704293521	0.0	0.985408480980094	-0.716469516358898	0.0	0.9502005722189033	-0.804249525752876	0.0	0.9866045553448809	-0.81886400128966	0.0	0.9792537518548995	-0.8150444753706564	0.0	0.9369142046172597	-0.8143290094230863	0.0	0.9600397151460949	-0.4925361072607763	0.0	0.976841130571023	-0.4297903606282648	0.0	0.9905577915428269	-0.4601455992293332	0.0	0.958358916674647	-0.5121079040985632	0.0	0.9552503545014615	-0.581501270026746	0.0	0.9704571297277965	-0.6403162866664016	0.0	0.9516169681806195	-0.5094809675819809	0.0	0.9408746370920328	-0.5732253101080599	0.0	0.9600428611170588	-0.6276189344819771	0.0
142	4.763291139240506	0.9470005617491861	-0.6202680432611924	0.0	0.9463074560869784	-0.6183468472689124	0.0	0.9867832720285742	-0.7117968449387299	0.0	0.9488372637043699	-0.8025046584945387	0.0	0.9773982463564217	-0.8181249370222327	0.0	0.9683583505732988	-0.8198544369463711	0.0	0.9389546451801771	-0.8136387020091886	0.0	0.9443980468669155	-0.6179110559925937	0.0	0.9874890157341695	-0.7089336365655787	0.0	0.9507322880769775	-0.7964480479163155	0.0	0.9893586805658549	-0.8117489466103757	0.0	0.9819783723401473	-0.8079284450702603	0.0	0.9366747146870362	-0.8066346632564861	0.0	0.9614769770813958	-0.48614204386877063	0.0	0.9797603243104673	-0.42375334652347973	0.0	0.9929154678250846	-0.4539588125840026	0.0	0.9603325084785149	-0.5047369651541761	0.0	0.9578475817038123	-0.5738764404989795	0.0	0.9759650108999735	-0.6322031788407315	0.0	0.9532379632598886	-0.5030067553363534	0.0	0.942089574663123	-0.5678177717456985	0.0	0.9622295744442063	-0.6226309938779091	0.0
143	4.796835443037974	0.9463713760445696	-0.6106299800111296	0.0	0.9458780231760292	-0.6085112788491265	0.0	0.9879698361336748	-0.7017855168065382	0.0	0.9493034962105853	-0.7930682452677915	0.0	0.9804857971611007	-0.8094585459123959	0.0	0.9705673062055602	-0.8113552039664798	0.0	0.9390714427794693	-0.8043900443805262	0.0	0.9440073759130255	-0.6080438549984396	0.0	0.9887789133068065	-0.6991942479454154	0.0	0.9510454134072539	-0.7867396231537023	0.0	0.9915549433846175	-0.8029722855829733	0.0	0.9842211570342393	-0.7991462662261232	0.0	0.9364399380237058	-0.7973061568768988	0.0	0.9628146066344383	-0.4767796987393021	0.0	0.9825610185599355	-0.4145307203656913	0.0	0.9949052183305762	-0.4447557919240352	0.0	0.9619473032070297	-0.49439131862548924	0.0	0.9597340301354127	-0.5628847639413581	0.0	0.9812471482142832	-0.6207936430448129	0.0	0.9547514409410504	-0.4934509876535681	0.0	0.9439555462992136	-0.5583432149655946	0.0	0.9647303957940303	-0.6129620259450037	0.0
144	4.830379746835443	0.9461129672131755	-0.5994119821443031	0.0	0.9461036779526494	-0.597274245149436	0.0	0.98868287525353	-0.6906028472081619	0.0	0.9497982705091028	-0.7827360850479947	0.0	0.9832806422808121	-0.8000564445245251	0.0	0.9726361298325286	-0.8021017040424306	0.0	0.939243240090392	-0.7945782015844385	0.0	0.9439936496081398	-0.5967456683263767	0.0	0.9889988374576845	-0.6885469720351478	0.0	0.9511682636836697	-0.7764042192029913	0.0	0.9930976973216652	-0.7936069840890877	0.0	0.9858690451666043	-0.7897985708289297	0.0	0.9362855280520327	-0.7876172307575137	0.0	0.9640570616736519	-0.46591950256256687	0.0	0.985171673397084	-0.40345588298019225	0.0	0.9964626977320051	-0.433816829872803	0.0	0.9633260364803665	-0.4826517749531481	0.0	0.961184562398269	-0.5501960352788969	0.0	0.9862418413876336	-0.6076846112958776	0.0	0.9560882871327397	-0.48231703496262923	0.0	0.9460699920834412	-0.5467388603020541	0.0	0.9669137281196709	-0.6008560755414546	0.0
145	4.863924050632911	0.9461192961449743	-0.5879008227864939	0.0	0.9468124717274442	-0.5858908549698536	0.0	0.9887269995782421	-0.6795359789564147	0.0	0.950332149934461	-0.7728152412562942	0.0	0.9855562095613805	-0.791145718110826	0.0	0.9744274279895533	-0.7933431985337582	0.0	0.9395555010188038	-0.7854847194636293	0.0	0.9442885641215519	-0.585223236127327	0.0	0.9881634013217729	-0.6781097701825164	0.0	0.9512073423112312	-0.7666702191332836	0.0	0.994043823398836	-0.7848024726738774	0.0	0.9869598589713029	-0.7810570310209513	0.0	0.9363488795688263	-0.7787609082246892	0.0	0.9652098014759518	-0.45497777935266326	0.0	0.987589559891479	-0.3919670536108547	0.0	0.9977003737002694	-0.42260002635281796	0.0	0.9645699643296348	-0.47099756956345357	0.0	0.9623839596186472	-0.5374680810570175	0.0	0.990912208479389	-0.5943447949754942	0.0	0.9572258602246543	-0.4710375711478522	0.0	0.948025713488102	-0.5347105950073127	0.0	0.9685478758424515	-0.5881662984865533	0.0
146	4.897468354430379	0.946378835720445	-0.5772980636838962	0.0	0.9478358495974248	-0.5754901432659513	0.0	0.9880273103564547	-0.6697545255385129	0.0	0.950882240392289	-0.7644360778388029	0.0	0.987229147474042	-0.7838140735225593	0.0	0.9758932683934912	-0.7861490309885809	0.0	0.9400778807290499	-0.7780830615196885	0.0	0.9449275728562235	-0.5745986221750614	0.0	0.9864929831770115	-0.668837442587223	0.0	0.9512725332616074	-0.7585626178481469	0.0	0.9944470987454871	-0.7776445809235044	0.0	0.9875117889904172	-0.7740240811566943	0.0	0.9367403499153639	-0.7716369095986907	0.0	0.9663048349308778	-0.445128776084246	0.0	0.9898223410677426	-0.3813716751230419	0.0	0.9987991539596518	-0.41243643169538546	0.0	0.9657140048554249	-0.460616162081094	0.0	0.9634199104740873	-0.5260836733652776	0.0	0.9951743282594162	-0.5819354385112657	0.0	0.9582365274870657	-0.4608053774160958	0.0	0.9496368487854697	-0.5235987494531742	0.0	0.9700919049925391	-0.5762800381425538	0.0
147	4.931012658227848	0.9469458370785115	-0.5685803574700713	0.0	0.9490655611039863	-0.5669559383680125	0.0	0.9866086610374151	-0.662189276683267	0.0	0.9513782783511615	-0.7583831883703772	0.0	0.9882945016259383	-0.7788403309695667	0.0	0.9770424853931516	-0.781240866854605	0.0	0.940792936162615	-0.7729757507548358	0.0	0.9459696054179593	-0.5657906749837036	0.0	0.9842600026034073	-0.661515810988694	0.0	0.9514034671226179	-0.7527991068370826	0.0	0.9943386989097812	-0.77293218186751	0.0	0.9875093293111624	-0.7695131487411974	0.0	0.9374575116690168	-0.7667891140771649	0.0	0.967373970769196	-0.4372132540862877	0.0	0.9918481393883823	-0.37263499045895365	0.0	0.9998619348765968	-0.4043036543526498	0.0	0.9667358132987185	-0.4523405190103288	0.0	0.9643457446551225	-0.5170514569252356	0.0	0.9989472173840446	-0.5713965370918346	0.0	0.9592633009689123	-0.4524860963941548	0.0	0.9509987666894272	-0.5143682536069294	0.0	0.9724499866277055	-0.5661974346162102	0.0
148	4.964556962025316	0.9478572165154242	-0.5623917428623968	0.0	0.950446647374171	-0.5608639042875821	0.0	0.9845578215176305	-0.6573998437065842	0.0	0.9517124645869037	-0.7550376154695221	0.0	0.988822259211536	-0.7765492168293776	0.0	0.9779118116862445	-0.778881614606356	0.0	0.9415668922980326	-0.7704382604533886	0.0	0.9474225265022012	-0.5594123692410349	0.0	0.9817083713735584	-0.6566763217364797	0.0	0.9515503914673703	-0.7497171329906043	0.0	0.9938085146466741	-0.7709813572968643	0.0	0.9870158075973615	-0.7678616731779012	0.0	0.93837668344565	-0.7644353927514385	0.0	0.9684212568326115	-0.43173064705962527	0.0	0.9936169141577116	-0.36632148123507324	0.0	1.0008817855549808	-0.3987775322082029	0.0	0.9675715420970554	-0.44665818080309944	0.0	0.9652512100271633	-0.5110083617251753	0.0	1.0022360026836146	-0.5635374214462677	0.0	0.9604597786239607	-0.4466268831426397	0.0	0.9524821730934494	-0.507681031325151	0.0	0.9763805753596426	-0.5586427446138293	0.0
149	4.998101265822784	0.949057628622124	-0.5590312103716905	0.0	0.9519129199321983	-0.5574925952184748	0.0	0.9820452305395151	-0.6555201742208097	0.0	0.9517916386939431	-0.754387012164509	0.0	0.9889136121386062	-0.7768295745049515	0.0	0.9785119183384201	-0.7789382225517514	0.0	0.9422111753689411	-0.7704379885102958	0.0	0.9491961839142609	-0.555767257379315	0.0	0.9790552476863033	-0.6545407692048657	0.0	0.9516430514297545	-0.7492749440885742	0.0	0.9930177659339833	-0.7716041526174863	0.0	0.9861999424567904	-0.7689018528005093	0.0	0.9393140795328054	-0.7644946156593174	0.0	0.9694228299748071	-0.42886877343960766	0.0	0.9950595326008422	-0.362665990751562	0.0	1.0018081603040998	-0.3960551055646516	0.0	0.9681406714837516	-0.44376538082081	0.0	0.9662367858345557	-0.508225995508564	0.0	1.0050915766470596	-0.5589585194924632	0.0	0.9619106188882068	-0.44349765433012567	0.0	0.954556865434001	-0.5039531919807345	0.0	0.9820129598208736	-0.55410595145729	0.0
150	5.031645569620253	0.9504020205338464	-0.5584810402364965	0.0	0.9533425285363326	-0.5568464015904488	0.0	0.9793231862792445	-0.6562989969652223	0.0	0.9516115810112051	-0.7560884301998522	0.0	0.9886388585153443	-0.7792706240031937	0.0	0.9787836491216022	-0.7810380320980425	0.0	0.9425892724266418	-0.7726429214951613	0.0	0.9511120877198781	-0.5548881436723229	0.0	0.9765089632647727	-0.6550163098754747	0.0	0.9516509489822924	-0.7511435441639096	0.0	0.9920839459673794	-0.7743082631952148	0.0	0.9852082813856821	-0.7721254585244657	0.0	0.9400966658504355	-0.7666378869022242	0.0	0.9703452108819369	-0.42853537398251923	0.0	0.9961114298344863	-0.3616476783464818	0.0	1.0026212789997828	-0.3959852656554736	0.0	0.9683891429063072	-0.44361885727499023	0.0	0.9673191022785035	-0.5086149549080426	0.0	1.007492803815595	-0.557917795307962	0.0	0.9635766651720956	-0.44310898480287614	0.0	0.9575566422892338	-0.5033482838043787	0.0	0.9887920537404339	-0.5528248427086768	0.0
